<?xml version="1.0" standalone="no"?><!DOCTYPE svg PUBLIC "-//W3C//DTD SVG 1.1//EN" "http://www.w3.org/Graphics/SVG/1.1/DTD/svg11.dtd"><svg t="1633049303576" class="icon" viewBox="0 0 1024 1024" version="1.1" xmlns="http://www.w3.org/2000/svg" p-id="7556" width="32" height="32" xmlns:xlink="http://www.w3.org/1999/xlink"><defs><style type="text/css"></style></defs><path d="M512 907.5078125A395.5078125 395.5078125 0 1 1 512 116.4921875a395.5078125 395.5078125 0 0 1 0 791.015625zM458.56249991 416.28710937s-27.68554688-106.87500017-41.5283203-124.14550772c-10.76660173-13.35937483-24.91699219-18.54492179-42.80273455-17.22656293-17.66601537 1.31835963-88.33007838 15.8203125-98.43749992 96.89941406-10.28320313 81.03515617 53.48144548 176.48437518 124.98046875 251.85058654 71.45507787 75.27832057 171.25488281 126.29882838 239.06250034 125.63964818 67.71972674-0.70312483 105.38085972-63.98437483 108.72070304-92.68066432 3.1640625-26.71874965-3.51562492-48.33984393-23.68652335-58.09570305-23.20312475-11.25000035-126.5625-29.31152352-126.5625-29.31152351l-43.63769557 43.46191397c-64.59960963-21.84082049-120.32226579-86.79199253-146.55761685-145.019531l50.44921843-51.41601561z" fill="#515151" p-id="7557"></path></svg>